<svg xmlns="http://www.w3.org/2000/svg" width="1024" height="1024" viewBox="0 0 1024 1024">
    <defs>
        <linearGradient id="zysgicexka" x1="38.859%" x2="50%" y1="0%" y2="100%">
            <stop offset="0%" stop-color="#5AB764"/>
            <stop offset="100%" stop-color="#417F45"/>
        </linearGradient>
    </defs>
    <g fill="none" fill-rule="evenodd">
        <g>
            <path fill="url(#zysgicexka)" stroke="#979797" d="M0.5 0.5H1023.5V1023.5H0.5z"/>
            <path fill="#FFF" d="M673.473 67.668c36.971-18.15 12.725-9.075-72.74 27.225L531.248 243.97C384.883 361.58 299.62 501.717 275.457 664.38c-24.162 162.664-57.242 262.068-99.238 298.213 178.842-58.59 297.185-148.825 355.03-270.703 57.844-121.879 62.893-268.124 15.148-438.736 47.745-105.507 90.104-167.336 127.076-185.486z"/>
            <path fill="#417F45" d="M478.215 413.495c-16.141 39.18-101.06 289.532-157.979 365.08-56.918 75.548 63.231-41.217 106.467-155.047 43.237-113.83 67.652-249.212 51.512-210.033z"/>
            <path fill="#5DBB47" d="M538.941 392.593h90.238c-37.14 33.205-55.71 101.47-55.71 204.791 0 103.322 23.145 184.086 69.437 242.29-47.01-181.045-61.05-271.568-42.121-271.568 28.394 0 117.972 51.872 131.863 144.077 14.466 96.022 52.99 180.158 115.571 252.41-130.556 0-233.648-36.91-309.278-110.727-75.63-73.818-75.63-163.057 0-267.716V392.593z"/>
        </g>
    </g>
</svg>
